<mxfile host="app.diagrams.net" modified="2021-04-02T14:24:55.058Z" agent="5.0 (Macintosh; Intel Mac OS X 10_15_2) AppleWebKit/537.36 (KHTML, like Gecko) Chrome/89.0.4389.114 Safari/537.36" etag="iVXAvjDB94w03mbubdQP" version="14.2.5" type="github">
  <diagram id="uB6PFatc1A07J4KH4zKB" name="Page-1">
    <mxGraphModel dx="1298" dy="1920" grid="1" gridSize="10" guides="1" tooltips="1" connect="1" arrows="1" fold="1" page="1" pageScale="1" pageWidth="827" pageHeight="1169" math="0" shadow="0">
      <root>
        <mxCell id="0" />
        <mxCell id="1" parent="0" />
        <mxCell id="OwIjX0SfPu3get4k9NVg-5" value="HippyListViewController" style="swimlane;fontStyle=1;align=center;verticalAlign=top;childLayout=stackLayout;horizontal=1;startSize=26;horizontalStack=0;resizeParent=1;resizeParentMax=0;resizeLast=0;collapsible=1;marginBottom=0;" vertex="1" parent="1">
          <mxGeometry x="100" y="220" width="280" height="112" as="geometry">
            <mxRectangle x="110" y="110" width="100" height="26" as="alternateBounds" />
          </mxGeometry>
        </mxCell>
        <mxCell id="OwIjX0SfPu3get4k9NVg-6" value="+ field: type" style="text;strokeColor=none;fillColor=none;align=left;verticalAlign=top;spacingLeft=4;spacingRight=4;overflow=hidden;rotatable=0;points=[[0,0.5],[1,0.5]];portConstraint=eastwest;" vertex="1" parent="OwIjX0SfPu3get4k9NVg-5">
          <mxGeometry y="26" width="280" height="26" as="geometry" />
        </mxCell>
        <mxCell id="OwIjX0SfPu3get4k9NVg-7" value="" style="line;strokeWidth=1;fillColor=none;align=left;verticalAlign=middle;spacingTop=-1;spacingLeft=3;spacingRight=3;rotatable=0;labelPosition=right;points=[];portConstraint=eastwest;" vertex="1" parent="OwIjX0SfPu3get4k9NVg-5">
          <mxGeometry y="52" width="280" height="8" as="geometry" />
        </mxCell>
        <mxCell id="OwIjX0SfPu3get4k9NVg-50" value="+ createViewImpl(type): HippyListView" style="text;strokeColor=none;fillColor=none;align=left;verticalAlign=top;spacingLeft=4;spacingRight=4;overflow=hidden;rotatable=0;points=[[0,0.5],[1,0.5]];portConstraint=eastwest;" vertex="1" parent="OwIjX0SfPu3get4k9NVg-5">
          <mxGeometry y="60" width="280" height="26" as="geometry" />
        </mxCell>
        <mxCell id="OwIjX0SfPu3get4k9NVg-8" value="+ createRenderNode(type): ListViewRenderNode" style="text;strokeColor=none;fillColor=none;align=left;verticalAlign=top;spacingLeft=4;spacingRight=4;overflow=hidden;rotatable=0;points=[[0,0.5],[1,0.5]];portConstraint=eastwest;" vertex="1" parent="OwIjX0SfPu3get4k9NVg-5">
          <mxGeometry y="86" width="280" height="26" as="geometry" />
        </mxCell>
        <mxCell id="OwIjX0SfPu3get4k9NVg-16" value="Extends" style="endArrow=block;endSize=16;endFill=0;html=1;entryX=0;entryY=0;entryDx=0;entryDy=0;exitX=1;exitY=0;exitDx=0;exitDy=0;" edge="1" parent="1" source="OwIjX0SfPu3get4k9NVg-5" target="OwIjX0SfPu3get4k9NVg-18">
          <mxGeometry width="160" relative="1" as="geometry">
            <mxPoint x="380" y="270" as="sourcePoint" />
            <mxPoint x="490" y="270" as="targetPoint" />
          </mxGeometry>
        </mxCell>
        <mxCell id="OwIjX0SfPu3get4k9NVg-18" value="HippyViewController&lt;T extends View &amp; HippyViewBase&gt;" style="swimlane;fontStyle=1;align=center;verticalAlign=top;childLayout=stackLayout;horizontal=1;startSize=26;horizontalStack=0;resizeParent=1;resizeParentMax=0;resizeLast=0;collapsible=1;marginBottom=0;" vertex="1" parent="1">
          <mxGeometry x="550" y="246" width="250" height="86" as="geometry" />
        </mxCell>
        <mxCell id="OwIjX0SfPu3get4k9NVg-19" value="+ field: type" style="text;strokeColor=none;fillColor=none;align=left;verticalAlign=top;spacingLeft=4;spacingRight=4;overflow=hidden;rotatable=0;points=[[0,0.5],[1,0.5]];portConstraint=eastwest;" vertex="1" parent="OwIjX0SfPu3get4k9NVg-18">
          <mxGeometry y="26" width="250" height="26" as="geometry" />
        </mxCell>
        <mxCell id="OwIjX0SfPu3get4k9NVg-20" value="" style="line;strokeWidth=1;fillColor=none;align=left;verticalAlign=middle;spacingTop=-1;spacingLeft=3;spacingRight=3;rotatable=0;labelPosition=right;points=[];portConstraint=eastwest;" vertex="1" parent="OwIjX0SfPu3get4k9NVg-18">
          <mxGeometry y="52" width="250" height="8" as="geometry" />
        </mxCell>
        <mxCell id="OwIjX0SfPu3get4k9NVg-21" value="+ method(type): type" style="text;strokeColor=none;fillColor=none;align=left;verticalAlign=top;spacingLeft=4;spacingRight=4;overflow=hidden;rotatable=0;points=[[0,0.5],[1,0.5]];portConstraint=eastwest;" vertex="1" parent="OwIjX0SfPu3get4k9NVg-18">
          <mxGeometry y="60" width="250" height="26" as="geometry" />
        </mxCell>
        <mxCell id="OwIjX0SfPu3get4k9NVg-22" value="HippyListView" style="swimlane;fontStyle=1;align=center;verticalAlign=top;childLayout=stackLayout;horizontal=1;startSize=26;horizontalStack=0;resizeParent=1;resizeParentMax=0;resizeLast=0;collapsible=1;marginBottom=0;" vertex="1" parent="1">
          <mxGeometry x="210" y="40" width="160" height="86" as="geometry" />
        </mxCell>
        <mxCell id="OwIjX0SfPu3get4k9NVg-23" value="+ mListAdapter: type" style="text;strokeColor=none;fillColor=none;align=left;verticalAlign=top;spacingLeft=4;spacingRight=4;overflow=hidden;rotatable=0;points=[[0,0.5],[1,0.5]];portConstraint=eastwest;" vertex="1" parent="OwIjX0SfPu3get4k9NVg-22">
          <mxGeometry y="26" width="160" height="26" as="geometry" />
        </mxCell>
        <mxCell id="OwIjX0SfPu3get4k9NVg-24" value="" style="line;strokeWidth=1;fillColor=none;align=left;verticalAlign=middle;spacingTop=-1;spacingLeft=3;spacingRight=3;rotatable=0;labelPosition=right;points=[];portConstraint=eastwest;" vertex="1" parent="OwIjX0SfPu3get4k9NVg-22">
          <mxGeometry y="52" width="160" height="8" as="geometry" />
        </mxCell>
        <mxCell id="OwIjX0SfPu3get4k9NVg-25" value="+ method(type): type" style="text;strokeColor=none;fillColor=none;align=left;verticalAlign=top;spacingLeft=4;spacingRight=4;overflow=hidden;rotatable=0;points=[[0,0.5],[1,0.5]];portConstraint=eastwest;" vertex="1" parent="OwIjX0SfPu3get4k9NVg-22">
          <mxGeometry y="60" width="160" height="26" as="geometry" />
        </mxCell>
        <mxCell id="OwIjX0SfPu3get4k9NVg-26" value="RecyclerView" style="swimlane;fontStyle=1;align=center;verticalAlign=top;childLayout=stackLayout;horizontal=1;startSize=26;horizontalStack=0;resizeParent=1;resizeParentMax=0;resizeLast=0;collapsible=1;marginBottom=0;" vertex="1" parent="1">
          <mxGeometry x="490" y="-70" width="160" height="86" as="geometry" />
        </mxCell>
        <mxCell id="OwIjX0SfPu3get4k9NVg-27" value="+ mRecyclerViewAdapter: type" style="text;strokeColor=none;fillColor=none;align=left;verticalAlign=top;spacingLeft=4;spacingRight=4;overflow=hidden;rotatable=0;points=[[0,0.5],[1,0.5]];portConstraint=eastwest;" vertex="1" parent="OwIjX0SfPu3get4k9NVg-26">
          <mxGeometry y="26" width="160" height="26" as="geometry" />
        </mxCell>
        <mxCell id="OwIjX0SfPu3get4k9NVg-28" value="" style="line;strokeWidth=1;fillColor=none;align=left;verticalAlign=middle;spacingTop=-1;spacingLeft=3;spacingRight=3;rotatable=0;labelPosition=right;points=[];portConstraint=eastwest;" vertex="1" parent="OwIjX0SfPu3get4k9NVg-26">
          <mxGeometry y="52" width="160" height="8" as="geometry" />
        </mxCell>
        <mxCell id="OwIjX0SfPu3get4k9NVg-29" value="+ method(type): type" style="text;strokeColor=none;fillColor=none;align=left;verticalAlign=top;spacingLeft=4;spacingRight=4;overflow=hidden;rotatable=0;points=[[0,0.5],[1,0.5]];portConstraint=eastwest;" vertex="1" parent="OwIjX0SfPu3get4k9NVg-26">
          <mxGeometry y="60" width="160" height="26" as="geometry" />
        </mxCell>
        <mxCell id="OwIjX0SfPu3get4k9NVg-30" value="Extends" style="endArrow=block;endSize=16;endFill=0;html=1;entryX=0;entryY=0;entryDx=0;entryDy=0;exitX=1;exitY=0;exitDx=0;exitDy=0;" edge="1" parent="1" source="OwIjX0SfPu3get4k9NVg-22" target="OwIjX0SfPu3get4k9NVg-26">
          <mxGeometry width="160" relative="1" as="geometry">
            <mxPoint x="370" y="80" as="sourcePoint" />
            <mxPoint x="430" y="80" as="targetPoint" />
          </mxGeometry>
        </mxCell>
        <mxCell id="OwIjX0SfPu3get4k9NVg-32" value="" style="endArrow=block;dashed=1;endFill=0;endSize=12;html=1;exitX=0.75;exitY=0;exitDx=0;exitDy=0;entryX=0.75;entryY=1;entryDx=0;entryDy=0;" edge="1" parent="1" source="OwIjX0SfPu3get4k9NVg-22" target="OwIjX0SfPu3get4k9NVg-33">
          <mxGeometry width="160" relative="1" as="geometry">
            <mxPoint x="370" y="40" as="sourcePoint" />
            <mxPoint x="330" y="-30" as="targetPoint" />
          </mxGeometry>
        </mxCell>
        <mxCell id="OwIjX0SfPu3get4k9NVg-33" value="&lt;pre style=&quot;background-color: #2b2b2b ; color: #a9b7c6 ; font-family: &amp;#34;menlo&amp;#34; , monospace ; font-size: 9.0pt&quot;&gt;HippyViewBase&lt;/pre&gt;" style="html=1;" vertex="1" parent="1">
          <mxGeometry x="270" y="-80" width="110" height="50" as="geometry" />
        </mxCell>
        <mxCell id="OwIjX0SfPu3get4k9NVg-34" value="HippyListAdapter" style="swimlane;fontStyle=1;align=center;verticalAlign=top;childLayout=stackLayout;horizontal=1;startSize=26;horizontalStack=0;resizeParent=1;resizeParentMax=0;resizeLast=0;collapsible=1;marginBottom=0;" vertex="1" parent="1">
          <mxGeometry x="670" y="36" width="160" height="86" as="geometry" />
        </mxCell>
        <mxCell id="OwIjX0SfPu3get4k9NVg-35" value="+ field: type" style="text;strokeColor=none;fillColor=none;align=left;verticalAlign=top;spacingLeft=4;spacingRight=4;overflow=hidden;rotatable=0;points=[[0,0.5],[1,0.5]];portConstraint=eastwest;" vertex="1" parent="OwIjX0SfPu3get4k9NVg-34">
          <mxGeometry y="26" width="160" height="26" as="geometry" />
        </mxCell>
        <mxCell id="OwIjX0SfPu3get4k9NVg-36" value="" style="line;strokeWidth=1;fillColor=none;align=left;verticalAlign=middle;spacingTop=-1;spacingLeft=3;spacingRight=3;rotatable=0;labelPosition=right;points=[];portConstraint=eastwest;" vertex="1" parent="OwIjX0SfPu3get4k9NVg-34">
          <mxGeometry y="52" width="160" height="8" as="geometry" />
        </mxCell>
        <mxCell id="OwIjX0SfPu3get4k9NVg-37" value="+ method(type): type" style="text;strokeColor=none;fillColor=none;align=left;verticalAlign=top;spacingLeft=4;spacingRight=4;overflow=hidden;rotatable=0;points=[[0,0.5],[1,0.5]];portConstraint=eastwest;" vertex="1" parent="OwIjX0SfPu3get4k9NVg-34">
          <mxGeometry y="60" width="160" height="26" as="geometry" />
        </mxCell>
        <mxCell id="OwIjX0SfPu3get4k9NVg-38" value="RecyclerAdapter" style="swimlane;fontStyle=1;align=center;verticalAlign=top;childLayout=stackLayout;horizontal=1;startSize=26;horizontalStack=0;resizeParent=1;resizeParentMax=0;resizeLast=0;collapsible=1;marginBottom=0;" vertex="1" parent="1">
          <mxGeometry x="930" y="-80" width="160" height="86" as="geometry" />
        </mxCell>
        <mxCell id="OwIjX0SfPu3get4k9NVg-39" value="+ field: type" style="text;strokeColor=none;fillColor=none;align=left;verticalAlign=top;spacingLeft=4;spacingRight=4;overflow=hidden;rotatable=0;points=[[0,0.5],[1,0.5]];portConstraint=eastwest;" vertex="1" parent="OwIjX0SfPu3get4k9NVg-38">
          <mxGeometry y="26" width="160" height="26" as="geometry" />
        </mxCell>
        <mxCell id="OwIjX0SfPu3get4k9NVg-40" value="" style="line;strokeWidth=1;fillColor=none;align=left;verticalAlign=middle;spacingTop=-1;spacingLeft=3;spacingRight=3;rotatable=0;labelPosition=right;points=[];portConstraint=eastwest;" vertex="1" parent="OwIjX0SfPu3get4k9NVg-38">
          <mxGeometry y="52" width="160" height="8" as="geometry" />
        </mxCell>
        <mxCell id="OwIjX0SfPu3get4k9NVg-41" value="+ method(type): type" style="text;strokeColor=none;fillColor=none;align=left;verticalAlign=top;spacingLeft=4;spacingRight=4;overflow=hidden;rotatable=0;points=[[0,0.5],[1,0.5]];portConstraint=eastwest;" vertex="1" parent="OwIjX0SfPu3get4k9NVg-38">
          <mxGeometry y="60" width="160" height="26" as="geometry" />
        </mxCell>
        <mxCell id="OwIjX0SfPu3get4k9NVg-42" value="Extends" style="endArrow=block;endSize=16;endFill=0;html=1;entryX=0;entryY=0;entryDx=0;entryDy=0;exitX=1;exitY=0;exitDx=0;exitDy=0;" edge="1" parent="1" source="OwIjX0SfPu3get4k9NVg-34" target="OwIjX0SfPu3get4k9NVg-38">
          <mxGeometry width="160" relative="1" as="geometry">
            <mxPoint x="840" y="40" as="sourcePoint" />
            <mxPoint x="1000" y="40" as="targetPoint" />
          </mxGeometry>
        </mxCell>
        <mxCell id="OwIjX0SfPu3get4k9NVg-43" value="" style="endArrow=block;dashed=1;endFill=0;endSize=12;html=1;exitX=0.75;exitY=0;exitDx=0;exitDy=0;entryX=0.5;entryY=1;entryDx=0;entryDy=0;" edge="1" parent="1" source="OwIjX0SfPu3get4k9NVg-34" target="OwIjX0SfPu3get4k9NVg-44">
          <mxGeometry width="160" relative="1" as="geometry">
            <mxPoint x="730" y="-60" as="sourcePoint" />
            <mxPoint x="800" y="-70" as="targetPoint" />
          </mxGeometry>
        </mxCell>
        <mxCell id="OwIjX0SfPu3get4k9NVg-44" value="&lt;pre style=&quot;background-color: #2b2b2b ; color: #a9b7c6 ; font-family: &amp;#34;menlo&amp;#34; , monospace ; font-size: 9.0pt&quot;&gt;IRecycleItemTypeChange&lt;/pre&gt;" style="html=1;" vertex="1" parent="1">
          <mxGeometry x="760" y="-140" width="110" height="50" as="geometry" />
        </mxCell>
        <mxCell id="OwIjX0SfPu3get4k9NVg-45" value="1" style="endArrow=open;html=1;endSize=12;startArrow=diamondThin;startSize=14;startFill=1;edgeStyle=orthogonalEdgeStyle;align=left;verticalAlign=bottom;exitX=1;exitY=0.5;exitDx=0;exitDy=0;entryX=0;entryY=0.25;entryDx=0;entryDy=0;" edge="1" parent="1" source="OwIjX0SfPu3get4k9NVg-23" target="OwIjX0SfPu3get4k9NVg-34">
          <mxGeometry x="-1" y="3" relative="1" as="geometry">
            <mxPoint x="380" y="82.5" as="sourcePoint" />
            <mxPoint x="540" y="82.5" as="targetPoint" />
          </mxGeometry>
        </mxCell>
        <mxCell id="OwIjX0SfPu3get4k9NVg-51" value="1" style="endArrow=open;html=1;endSize=12;startArrow=diamondThin;startSize=14;startFill=0;edgeStyle=orthogonalEdgeStyle;align=left;verticalAlign=bottom;entryX=0;entryY=0.25;entryDx=0;entryDy=0;exitX=0;exitY=0;exitDx=0;exitDy=0;" edge="1" parent="1" source="OwIjX0SfPu3get4k9NVg-5" target="OwIjX0SfPu3get4k9NVg-22">
          <mxGeometry x="-0.9255" relative="1" as="geometry">
            <mxPoint x="-70" y="290" as="sourcePoint" />
            <mxPoint x="90" y="290" as="targetPoint" />
            <mxPoint as="offset" />
          </mxGeometry>
        </mxCell>
        <mxCell id="OwIjX0SfPu3get4k9NVg-52" value="RecyclerViewBase.Adapter&lt;RecyclerView.ViewHolderWrapper&gt;" style="swimlane;fontStyle=1;align=center;verticalAlign=top;childLayout=stackLayout;horizontal=1;startSize=26;horizontalStack=0;resizeParent=1;resizeParentMax=0;resizeLast=0;collapsible=1;marginBottom=0;" vertex="1" parent="1">
          <mxGeometry x="920" y="-270" width="350" height="86" as="geometry" />
        </mxCell>
        <mxCell id="OwIjX0SfPu3get4k9NVg-53" value="+ field: type" style="text;strokeColor=none;fillColor=none;align=left;verticalAlign=top;spacingLeft=4;spacingRight=4;overflow=hidden;rotatable=0;points=[[0,0.5],[1,0.5]];portConstraint=eastwest;" vertex="1" parent="OwIjX0SfPu3get4k9NVg-52">
          <mxGeometry y="26" width="350" height="26" as="geometry" />
        </mxCell>
        <mxCell id="OwIjX0SfPu3get4k9NVg-54" value="" style="line;strokeWidth=1;fillColor=none;align=left;verticalAlign=middle;spacingTop=-1;spacingLeft=3;spacingRight=3;rotatable=0;labelPosition=right;points=[];portConstraint=eastwest;" vertex="1" parent="OwIjX0SfPu3get4k9NVg-52">
          <mxGeometry y="52" width="350" height="8" as="geometry" />
        </mxCell>
        <mxCell id="OwIjX0SfPu3get4k9NVg-55" value="+ method(type): type" style="text;strokeColor=none;fillColor=none;align=left;verticalAlign=top;spacingLeft=4;spacingRight=4;overflow=hidden;rotatable=0;points=[[0,0.5],[1,0.5]];portConstraint=eastwest;" vertex="1" parent="OwIjX0SfPu3get4k9NVg-52">
          <mxGeometry y="60" width="350" height="26" as="geometry" />
        </mxCell>
        <mxCell id="OwIjX0SfPu3get4k9NVg-56" value="RecyclerViewBase" style="swimlane;fontStyle=1;align=center;verticalAlign=top;childLayout=stackLayout;horizontal=1;startSize=26;horizontalStack=0;resizeParent=1;resizeParentMax=0;resizeLast=0;collapsible=1;marginBottom=0;" vertex="1" parent="1">
          <mxGeometry x="300" y="-290" width="160" height="86" as="geometry" />
        </mxCell>
        <mxCell id="OwIjX0SfPu3get4k9NVg-57" value="+ field: type" style="text;strokeColor=none;fillColor=none;align=left;verticalAlign=top;spacingLeft=4;spacingRight=4;overflow=hidden;rotatable=0;points=[[0,0.5],[1,0.5]];portConstraint=eastwest;" vertex="1" parent="OwIjX0SfPu3get4k9NVg-56">
          <mxGeometry y="26" width="160" height="26" as="geometry" />
        </mxCell>
        <mxCell id="OwIjX0SfPu3get4k9NVg-58" value="" style="line;strokeWidth=1;fillColor=none;align=left;verticalAlign=middle;spacingTop=-1;spacingLeft=3;spacingRight=3;rotatable=0;labelPosition=right;points=[];portConstraint=eastwest;" vertex="1" parent="OwIjX0SfPu3get4k9NVg-56">
          <mxGeometry y="52" width="160" height="8" as="geometry" />
        </mxCell>
        <mxCell id="OwIjX0SfPu3get4k9NVg-59" value="+ method(type): type" style="text;strokeColor=none;fillColor=none;align=left;verticalAlign=top;spacingLeft=4;spacingRight=4;overflow=hidden;rotatable=0;points=[[0,0.5],[1,0.5]];portConstraint=eastwest;" vertex="1" parent="OwIjX0SfPu3get4k9NVg-56">
          <mxGeometry y="60" width="160" height="26" as="geometry" />
        </mxCell>
        <mxCell id="OwIjX0SfPu3get4k9NVg-60" value="Extends" style="endArrow=block;endSize=16;endFill=0;html=1;entryX=0;entryY=0;entryDx=0;entryDy=0;exitX=0;exitY=0;exitDx=0;exitDy=0;" edge="1" parent="1" source="OwIjX0SfPu3get4k9NVg-26" target="OwIjX0SfPu3get4k9NVg-56">
          <mxGeometry width="160" relative="1" as="geometry">
            <mxPoint x="420" y="-110" as="sourcePoint" />
            <mxPoint x="580" y="-110" as="targetPoint" />
          </mxGeometry>
        </mxCell>
        <mxCell id="OwIjX0SfPu3get4k9NVg-61" value="&lt;pre style=&quot;background-color: #2b2b2b ; color: #a9b7c6 ; font-family: &amp;#34;menlo&amp;#34; , monospace ; font-size: 9.0pt&quot;&gt;RecyclerViewBase.OnScrollListener&lt;/pre&gt;" style="html=1;" vertex="1" parent="1">
          <mxGeometry x="580" y="-300" width="110" height="50" as="geometry" />
        </mxCell>
      </root>
    </mxGraphModel>
  </diagram>
</mxfile>
